<mxfile host="Electron" modified="2025-07-23T14:09:16.672Z" agent="Mozilla/5.0 (Windows NT 10.0; Win64; x64) AppleWebKit/537.36 (KHTML, like Gecko) draw.io/24.0.4 Chrome/120.0.6099.109 Electron/28.1.0 Safari/537.36" etag="8m78XtQ_jj71HHMqBQSN" version="24.0.4" type="device">
  <diagram name="Page-1" id="2gnYhek3t0V4Kro3cnDU">
    <mxGraphModel dx="1185" dy="688" grid="1" gridSize="10" guides="1" tooltips="1" connect="1" arrows="1" fold="1" page="1" pageScale="1" pageWidth="1169" pageHeight="1654" math="0" shadow="0">
      <root>
        <mxCell id="0" />
        <mxCell id="1" parent="0" />
        <mxCell id="-TGiIAHg_MrYisxf_kVm-1" value="&lt;font style=&quot;font-size: 14px;&quot;&gt;Client&lt;/font&gt;" style="ellipse;whiteSpace=wrap;html=1;" parent="1" vertex="1">
          <mxGeometry x="40" y="90" width="80" height="60" as="geometry" />
        </mxCell>
        <mxCell id="-TGiIAHg_MrYisxf_kVm-2" value="&lt;font style=&quot;font-size: 14px;&quot;&gt;HTTP&lt;/font&gt;&lt;div&gt;&lt;font style=&quot;font-size: 14px;&quot;&gt;Server&lt;/font&gt;&lt;/div&gt;" style="ellipse;whiteSpace=wrap;html=1;" parent="1" vertex="1">
          <mxGeometry x="200" y="130" width="80" height="60" as="geometry" />
        </mxCell>
        <mxCell id="-TGiIAHg_MrYisxf_kVm-3" value="&lt;font style=&quot;font-size: 14px;&quot;&gt;Admin&lt;/font&gt;" style="ellipse;whiteSpace=wrap;html=1;" parent="1" vertex="1">
          <mxGeometry x="40" y="170" width="80" height="60" as="geometry" />
        </mxCell>
        <mxCell id="-TGiIAHg_MrYisxf_kVm-4" value="&lt;font style=&quot;font-size: 14px;&quot;&gt;API endpoints&lt;/font&gt;" style="ellipse;whiteSpace=wrap;html=1;" parent="1" vertex="1">
          <mxGeometry x="200" y="210" width="80" height="60" as="geometry" />
        </mxCell>
        <mxCell id="-TGiIAHg_MrYisxf_kVm-5" value="&lt;font style=&quot;font-size: 14px;&quot;&gt;Barcode reader&lt;/font&gt;" style="ellipse;whiteSpace=wrap;html=1;" parent="1" vertex="1">
          <mxGeometry x="520" y="170" width="80" height="60" as="geometry" />
        </mxCell>
        <mxCell id="-TGiIAHg_MrYisxf_kVm-6" value="&lt;font style=&quot;font-size: 14px;&quot;&gt;Search Page&lt;/font&gt;" style="ellipse;whiteSpace=wrap;html=1;" parent="1" vertex="1">
          <mxGeometry x="40" y="250" width="80" height="60" as="geometry" />
        </mxCell>
        <mxCell id="-TGiIAHg_MrYisxf_kVm-7" value="&lt;font style=&quot;font-size: 14px;&quot;&gt;Database&lt;/font&gt;" style="ellipse;whiteSpace=wrap;html=1;" parent="1" vertex="1">
          <mxGeometry x="360" y="130" width="80" height="60" as="geometry" />
        </mxCell>
        <mxCell id="-TGiIAHg_MrYisxf_kVm-8" value="&lt;span style=&quot;font-size: 14px;&quot;&gt;Printer&lt;/span&gt;" style="ellipse;whiteSpace=wrap;html=1;" parent="1" vertex="1">
          <mxGeometry x="360" y="210" width="80" height="60" as="geometry" />
        </mxCell>
        <mxCell id="-TGiIAHg_MrYisxf_kVm-11" value="" style="endArrow=classic;html=1;rounded=0;" parent="1" source="-TGiIAHg_MrYisxf_kVm-1" target="-TGiIAHg_MrYisxf_kVm-2" edge="1">
          <mxGeometry width="50" height="50" relative="1" as="geometry">
            <mxPoint x="40" y="450" as="sourcePoint" />
            <mxPoint x="90" y="400" as="targetPoint" />
          </mxGeometry>
        </mxCell>
        <mxCell id="-TGiIAHg_MrYisxf_kVm-12" value="" style="endArrow=classic;html=1;rounded=0;" parent="1" source="-TGiIAHg_MrYisxf_kVm-3" target="-TGiIAHg_MrYisxf_kVm-2" edge="1">
          <mxGeometry width="50" height="50" relative="1" as="geometry">
            <mxPoint x="60" y="450" as="sourcePoint" />
            <mxPoint x="110" y="400" as="targetPoint" />
          </mxGeometry>
        </mxCell>
        <mxCell id="-TGiIAHg_MrYisxf_kVm-13" value="" style="endArrow=classic;html=1;rounded=0;" parent="1" source="-TGiIAHg_MrYisxf_kVm-3" target="-TGiIAHg_MrYisxf_kVm-4" edge="1">
          <mxGeometry width="50" height="50" relative="1" as="geometry">
            <mxPoint x="80" y="450" as="sourcePoint" />
            <mxPoint x="130" y="400" as="targetPoint" />
          </mxGeometry>
        </mxCell>
        <mxCell id="-TGiIAHg_MrYisxf_kVm-14" value="" style="endArrow=classic;html=1;rounded=0;" parent="1" source="-TGiIAHg_MrYisxf_kVm-6" target="-TGiIAHg_MrYisxf_kVm-4" edge="1">
          <mxGeometry width="50" height="50" relative="1" as="geometry">
            <mxPoint x="100" y="450" as="sourcePoint" />
            <mxPoint x="150" y="400" as="targetPoint" />
          </mxGeometry>
        </mxCell>
        <mxCell id="-TGiIAHg_MrYisxf_kVm-15" value="" style="endArrow=classic;html=1;rounded=0;" parent="1" source="-TGiIAHg_MrYisxf_kVm-1" target="-TGiIAHg_MrYisxf_kVm-4" edge="1">
          <mxGeometry width="50" height="50" relative="1" as="geometry">
            <mxPoint x="120" y="450" as="sourcePoint" />
            <mxPoint x="170" y="400" as="targetPoint" />
          </mxGeometry>
        </mxCell>
        <mxCell id="-TGiIAHg_MrYisxf_kVm-16" value="" style="endArrow=classic;html=1;rounded=0;" parent="1" source="-TGiIAHg_MrYisxf_kVm-6" target="-TGiIAHg_MrYisxf_kVm-2" edge="1">
          <mxGeometry width="50" height="50" relative="1" as="geometry">
            <mxPoint x="140" y="450" as="sourcePoint" />
            <mxPoint x="190" y="400" as="targetPoint" />
          </mxGeometry>
        </mxCell>
        <mxCell id="-TGiIAHg_MrYisxf_kVm-17" value="" style="endArrow=classic;html=1;rounded=0;" parent="1" source="-TGiIAHg_MrYisxf_kVm-4" target="-TGiIAHg_MrYisxf_kVm-7" edge="1">
          <mxGeometry width="50" height="50" relative="1" as="geometry">
            <mxPoint x="160" y="450" as="sourcePoint" />
            <mxPoint x="210" y="400" as="targetPoint" />
          </mxGeometry>
        </mxCell>
        <mxCell id="-TGiIAHg_MrYisxf_kVm-18" value="" style="endArrow=classic;html=1;rounded=0;" parent="1" source="-TGiIAHg_MrYisxf_kVm-7" target="-TGiIAHg_MrYisxf_kVm-8" edge="1">
          <mxGeometry width="50" height="50" relative="1" as="geometry">
            <mxPoint x="180" y="450" as="sourcePoint" />
            <mxPoint x="230" y="400" as="targetPoint" />
          </mxGeometry>
        </mxCell>
        <mxCell id="-TGiIAHg_MrYisxf_kVm-20" value="" style="endArrow=classic;html=1;rounded=0;" parent="1" source="-TGiIAHg_MrYisxf_kVm-2" target="-TGiIAHg_MrYisxf_kVm-7" edge="1">
          <mxGeometry width="50" height="50" relative="1" as="geometry">
            <mxPoint x="60" y="470" as="sourcePoint" />
            <mxPoint x="110" y="420" as="targetPoint" />
          </mxGeometry>
        </mxCell>
        <mxCell id="-TGiIAHg_MrYisxf_kVm-21" value="" style="endArrow=classic;html=1;rounded=0;" parent="1" source="-TGiIAHg_MrYisxf_kVm-5" target="-TGiIAHg_MrYisxf_kVm-7" edge="1">
          <mxGeometry width="50" height="50" relative="1" as="geometry">
            <mxPoint x="80" y="470" as="sourcePoint" />
            <mxPoint x="130" y="420" as="targetPoint" />
          </mxGeometry>
        </mxCell>
        <mxCell id="-TGiIAHg_MrYisxf_kVm-22" value="" style="endArrow=classic;html=1;rounded=0;" parent="1" source="-TGiIAHg_MrYisxf_kVm-4" target="-TGiIAHg_MrYisxf_kVm-8" edge="1">
          <mxGeometry width="50" height="50" relative="1" as="geometry">
            <mxPoint x="100" y="470" as="sourcePoint" />
            <mxPoint x="150" y="420" as="targetPoint" />
          </mxGeometry>
        </mxCell>
        <mxCell id="-TGiIAHg_MrYisxf_kVm-23" value="" style="endArrow=classic;html=1;rounded=0;" parent="1" source="-TGiIAHg_MrYisxf_kVm-2" target="-TGiIAHg_MrYisxf_kVm-8" edge="1">
          <mxGeometry width="50" height="50" relative="1" as="geometry">
            <mxPoint x="120" y="470" as="sourcePoint" />
            <mxPoint x="170" y="420" as="targetPoint" />
          </mxGeometry>
        </mxCell>
      </root>
    </mxGraphModel>
  </diagram>
</mxfile>
